# xmcd
#
# Track frame offsets:
#	150
#	10745
#	22251
#	33622
#	43039
#	55773
#	67014
#	77820
#	88419
#	98495
#	111417
#	121232
#
# Disc length: 1766 seconds
#
# Revision: 1
# Processed by: cddbd v1.5.2PL0 Copyright (c) Steve Scherf et al.
# Submitted via: EasyCDDAExtractor 10.0.2.1
#
DISCID=a006e40c
DTITLE=Connie Smith - The Best Of Connie Smith
DYEAR=1967
DGENRE=Country
TTITLE0=Once a Day
TTITLE1=I Can't Remember
TTITLE2=Tiny Blue Transistor Radio
TTITLE3=I'll Come Runnin'
TTITLE4=I Saw a Man
TTITLE5=If I Talk To Him
TTITLE6=Then And Only Then
TTITLE7=Ain't Had No Lovin'
TTITLE8=Darling Are You Ever Coming Home
TTITLE9=The Hurtin's All Over
TTITLE10=Cincinnati, Ohio
TTITLE11=Nobody But a a Fool (Would Love You)
EXTD=
EXTT0=
EXTT1=
EXTT2=
EXTT3=
EXTT4=
EXTT5=
EXTT6=
EXTT7=
EXTT8=
EXTT9=
EXTT10=
EXTT11=
PLAYORDER=
